<svg width="48" height="48" viewBox="0 0 48 48" fill="none" xmlns="http://www.w3.org/2000/svg">
<g clip-path="url(#clip0_278_7)">
<path d="M48 24C48 10.7452 37.2548 0 24 0C10.7452 0 0 10.7452 0 24C0 37.2548 10.7452 48 24 48C37.2548 48 48 37.2548 48 24Z" fill="#6F6FFB"/>
<path d="M13.5 31.5C15.5711 31.5 17.25 29.8211 17.25 27.75C17.25 25.6789 15.5711 24 13.5 24C11.4289 24 9.75 25.6789 9.75 27.75C9.75 29.8211 11.4289 31.5 13.5 31.5Z" fill="#F0BD70"/>
<path d="M13.5 30.75H26.25V49.4025C26.25 49.4025 23.5177 51 19.875 51C16.2323 51 13.5 48.3923 13.5 48.3923V30.75Z" fill="#F0BD70"/>
<path d="M26.25 40.401C26.25 44.6415 25.5885 44.2395 21.2872 44.2395C16.986 44.2395 15.0015 40.8022 15.0015 36.5617C15.0015 32.3212 14.838 28.5 18.309 28.5C28.125 28.875 26.25 36.1605 26.25 40.401Z" fill="#E9B05B"/>
<path d="M34.4146 27.075C34.4146 33.7665 37.1791 41.9948 25.1251 41.9948C13.0711 41.9948 13.0711 33.7665 13.0711 27.075C11.2501 19.125 11.6251 9.75 24.0001 9.75C36.3751 9.75 34.4146 20.3827 34.4146 27.075Z" fill="#FFCB7E"/>
<path d="M28.5 30.75H27.75C27.3358 30.75 27 31.0858 27 31.5C27 31.9142 27.3358 32.25 27.75 32.25H28.5C28.9142 32.25 29.25 31.9142 29.25 31.5C29.25 31.0858 28.9142 30.75 28.5 30.75Z" fill="#F0BD70"/>
<path d="M28.5 45H12C8.27208 45 5.25 48.0221 5.25 51.75V55.5C5.25 59.2279 8.27208 62.25 12 62.25H28.5C32.2279 62.25 35.25 59.2279 35.25 55.5V51.75C35.25 48.0221 32.2279 45 28.5 45Z" fill="#E05A33"/>
<path fill-rule="evenodd" clip-rule="evenodd" d="M34.4759 24.3623C35.0984 24.0109 35.575 23.4488 35.8198 22.7773C36.0645 22.1057 36.0614 21.3687 35.8109 20.6993C36.4956 20.3692 37.0294 19.7916 37.3046 19.0831C37.5798 18.3746 37.5758 17.5881 37.2934 16.8824C37.0111 16.1767 36.4714 15.6046 35.7834 15.2815C35.0955 14.9584 34.3105 14.9084 33.5872 15.1417C34.6499 17.8972 34.5719 21.3053 34.4759 24.3623Z" fill="#47280B"/>
<path fill-rule="evenodd" clip-rule="evenodd" d="M27.2228 17.07C26.5393 17.6708 25.66 18.0015 24.75 18C23.92 18.0013 23.1133 17.7261 22.4573 17.2177C21.9704 17.7044 21.3924 18.0902 20.7563 18.3531C20.1201 18.6161 19.4383 18.7509 18.75 18.75C18.2303 18.7503 17.7134 18.6735 17.2163 18.522C17.0208 18.7359 16.7954 18.9206 16.5473 19.0702C16.8425 19.4215 17.0532 19.8359 17.1632 20.2814C17.2732 20.727 17.2795 21.1918 17.1816 21.6402C17.0837 22.0885 16.8843 22.5084 16.5987 22.8676C16.313 23.2268 15.9488 23.5157 15.534 23.712C15.6578 23.8815 15.7317 24.0824 15.7472 24.2918C15.7628 24.5011 15.7195 24.7107 15.6222 24.8967C15.5249 25.0828 15.3775 25.2379 15.1966 25.3445C15.0157 25.4511 14.8086 25.5049 14.5988 25.5C14.2311 26.1397 13.6406 26.6215 12.9401 26.8533C12.2396 27.085 11.4782 27.0505 10.8016 26.7563C10.1249 26.4621 9.58038 25.9289 9.27211 25.2585C8.96384 24.5881 8.91342 23.8277 9.1305 23.1225C8.85102 22.8442 8.62935 22.5134 8.47823 22.1492C8.32712 21.7849 8.24955 21.3943 8.25 21C8.25 20.1705 8.58675 19.4197 9.1305 18.8775C8.98564 18.4037 8.96038 17.9014 9.05696 17.4155C9.15355 16.9295 9.36897 16.4751 9.684 16.0927C9.29384 15.4052 9.06389 14.6385 9.01131 13.8498C8.95872 13.061 9.08486 12.2706 9.3803 11.5374C9.67575 10.8042 10.1329 10.1471 10.7176 9.61516C11.3024 9.08322 11.9997 8.69015 12.7575 8.46523C12.7185 7.92623 12.8259 7.38671 13.0682 6.90367C13.3105 6.42064 13.6788 6.01202 14.1341 5.721C14.5895 5.42998 15.115 5.26737 15.6551 5.25033C16.1953 5.2333 16.73 5.36248 17.2028 5.62422C17.6635 4.82602 18.3264 4.16324 19.1246 3.70256C19.9229 3.24188 20.8284 2.99956 21.75 2.99997C22.7798 2.99997 23.7405 3.29623 24.5513 3.80923C25.1082 3.20931 25.8071 2.75923 26.5837 2.50048C27.3603 2.24173 28.1895 2.18262 28.9949 2.32862C29.8004 2.47461 30.5561 2.82101 31.1925 3.33587C31.8288 3.85074 32.3253 4.51751 32.6363 5.27472C33.033 5.32615 33.4155 5.45643 33.7612 5.65788C34.1068 5.85933 34.4087 6.12788 34.649 6.44774C34.8894 6.7676 35.0633 7.1323 35.1606 7.52038C35.2579 7.90845 35.2765 8.31207 35.2155 8.70747C36.6068 9.73798 37.5 11.334 37.5 13.125C37.5 16.2315 34.8135 18.75 31.5 18.75C29.8253 18.75 28.311 18.1065 27.2228 17.07Z" fill="#47280B"/>
<path d="M21.6968 34.5C21.6968 34.3011 21.7758 34.1103 21.9164 33.9697C22.0571 33.829 22.2479 33.75 22.4468 33.75H29.304C29.5029 33.75 29.6937 33.829 29.8344 33.9697C29.975 34.1103 30.054 34.3011 30.054 34.5C30.054 35.4946 29.6589 36.4484 28.9557 37.1517C28.2524 37.8549 27.2986 38.25 26.304 38.25H25.4468C24.4522 38.25 23.4984 37.8549 22.7951 37.1517C22.0919 36.4484 21.6968 35.4946 21.6968 34.5Z" fill="#66253C"/>
<path fill-rule="evenodd" clip-rule="evenodd" d="M27.5662 38.0325C27.1611 38.177 26.7341 38.2506 26.304 38.25H25.4467C24.4781 38.25 23.5471 37.8753 22.8486 37.2042C22.1502 36.5331 21.7385 35.6179 21.6997 34.65C22.2727 34.4355 23.1232 34.4603 23.9625 34.485C24.2295 34.4925 24.495 34.5 24.75 34.5C26.4075 34.5 27.75 35.6753 27.75 37.125C27.75 37.4438 27.6847 37.7498 27.5662 38.0325Z" fill="#B03E67"/>
<path d="M22.5 33.75H30V34.5C30 34.6989 29.921 34.8897 29.7803 35.0303C29.6397 35.171 29.4489 35.25 29.25 35.25H23.25C23.0511 35.25 22.8603 35.171 22.7197 35.0303C22.579 34.8897 22.5 34.6989 22.5 34.5V33.75Z" fill="white"/>
<path d="M24.75 28.125C24.75 27.5037 24.2463 27 23.625 27C23.0037 27 22.5 27.5037 22.5 28.125V28.875C22.5 29.4963 23.0037 30 23.625 30C24.2463 30 24.75 29.4963 24.75 28.875V28.125Z" fill="#1B0B47"/>
<path d="M32.25 28.125C32.25 27.5037 31.7463 27 31.125 27C30.5037 27 30 27.5037 30 28.125V28.875C30 29.4963 30.5037 30 31.125 30C31.7463 30 32.25 29.4963 32.25 28.875V28.125Z" fill="#1B0B47"/>
<path d="M20.625 29.25H19.125C18.5037 29.25 18 29.7537 18 30.375C18 30.9963 18.5037 31.5 19.125 31.5H20.625C21.2463 31.5 21.75 30.9963 21.75 30.375C21.75 29.7537 21.2463 29.25 20.625 29.25Z" fill="#FF859B"/>
<path d="M34.125 29.25H33.375C32.7537 29.25 32.25 29.7537 32.25 30.375C32.25 30.9963 32.7537 31.5 33.375 31.5H34.125C34.7463 31.5 35.25 30.9963 35.25 30.375C35.25 29.7537 34.7463 29.25 34.125 29.25Z" fill="#FF859B"/>
</g>
<defs>
<clipPath id="clip0_278_7">
<rect width="48" height="48" rx="24" fill="white"/>
</clipPath>
</defs>
</svg>
